<?xml version="1.0" encoding="utf-8"?>
<!-- Generator: Adobe Illustrator 17.1.0, SVG Export Plug-In . SVG Version: 6.00 Build 0)  -->
<!DOCTYPE svg PUBLIC "-//W3C//DTD SVG 1.1//EN" "http://www.w3.org/Graphics/SVG/1.1/DTD/svg11.dtd">
<svg version="1.1" id="Layer_1" xmlns="http://www.w3.org/2000/svg" preserveAspectRatio="xMinYMid" xmlns:xlink="http://www.w3.org/1999/xlink" x="0px" y="0px"
	 viewBox="0 0 614.907 155.28" width="614.907" height="155.28" enable-background="new 0 0 614.907 155.28" xml:space="preserve">
<polygon fill="#233A75" points="381.961,93.174 381.961,23.612 363.668,23.612 363.668,6.525 432.856,6.525 432.856,23.612 
	414.57,23.612 414.637,93.174 381.961,93.174 "/>
<path fill="#233A75" d="M517.746,94.603c-12.48,0-21.039-1.559-26.656-4.372l6.172-14.335c2.805,1.559,8.703,3.32,14.867,3.32
	c6.449,0,10.254-2.386,10.254-6.129c0-3.634-3.094-5.928-11.645-8.937c-14.602-5.195-18.664-13.093-18.664-20.061
	c0-12.682,12.488-23.069,32.258-23.069c11.234,0,19.227,1.971,24,4.257l-5.605,12.476c-3.375-1.457-8.43-3.016-14.035-3.016
	c-6.164,0-9.535,2.182-9.535,6.129c0,4.055,3.789,6.239,11.637,9.042c18.391,6.545,21.039,13.832,21.039,21.621
	C551.832,84.625,537.809,94.603,517.746,94.603L517.746,94.603z"/>
<polygon fill="#233A75" points="570.727,35.77 555.141,35.77 555.141,22.057 614.078,22.057 614.078,35.77 598.508,35.77 
	598.598,93.174 570.563,93.174 570.727,35.77 "/>
<polygon fill="#233A75" points="437.309,93.268 437.309,21.844 486.82,21.844 486.82,35.545 463.953,35.545 463.953,50.394 
	483.59,50.394 483.59,63.777 463.953,63.777 463.953,79.556 486.82,79.556 486.82,93.268 437.309,93.268 "/>
<path fill-rule="evenodd" clip-rule="evenodd" d="M36.746,94.368L36.746,94.368c38.356,0,50.707-20.635,50.707-44.27
	c0-24.377-13.008-44.263-52.351-44.263c-14.293,0-25.023,2.13-33.953,5.128V89.24C9.75,92.484,21.617,94.368,36.746,94.368z
	 M37.063,22.086L37.063,22.086c13.496,0,18.203,7.388,18.203,27.389c0,21.756-5.035,28.012-17.723,28.012
	c-1.785,0-3.566-0.252-4.707-0.503V22.463C34.141,22.212,35.434,22.086,37.063,22.086z"/>
<path fill-rule="evenodd" clip-rule="evenodd" d="M139.516,93.268L139.516,93.268h28.918l-21.938-31.977v-0.207
	c9.699-1.977,18.172-9.442,18.172-17.438c0-13.81-12.094-22.847-39.145-22.847c-12.258,0-22.473,1.664-30.148,4.263v68.206h26.109
	V62.643h0.262L139.516,93.268z M125.785,32.429L125.785,32.429c10.355,0,12.93,4.05,12.93,12.255
	c0,7.882-4.719,12.869-14.133,12.869c-1.227,0-2.562-0.104-3.098-0.202V32.945C122.566,32.643,123.902,32.429,125.785,32.429z"/>
<polygon fill-rule="evenodd" clip-rule="evenodd" points="176.688,93.268 176.688,21.844 203.332,21.844 203.332,93.268 
	176.688,93.268 "/>
<polygon fill-rule="evenodd" clip-rule="evenodd" points="303.344,93.268 303.344,21.844 352.863,21.844 352.863,35.545 
	329.988,35.545 329.988,50.394 349.625,50.394 349.625,63.777 329.988,63.777 329.988,79.556 352.863,79.556 352.863,93.268 
	303.344,93.268 "/>
<polygon fill-rule="evenodd" clip-rule="evenodd" points="257.848,93.268 267.395,93.268 308.992,1.401 298.438,1.434 
	257.848,93.268 "/>
<polygon fill-rule="evenodd" clip-rule="evenodd" points="283.09,1.434 256.379,64.172 237.598,21.811 209.668,21.811 
	244.25,93.268 253.074,93.268 293.699,1.434 283.09,1.434 "/>
<polygon fill-rule="evenodd" clip-rule="evenodd" points="1.082,119.261 3.184,119.261 3.184,132.353 10.91,132.353 10.91,134.136 
	1.082,134.136 1.082,119.261 "/>
<polygon fill-rule="evenodd" clip-rule="evenodd" points="12.816,123.344 12.816,123.344 12.816,134.136 14.699,134.136 
	14.699,123.344 "/>
<polygon fill-rule="evenodd" clip-rule="evenodd" points="12.816,119.227 12.816,119.227 12.816,121.33 14.699,121.33 
	14.699,119.227 "/>
<path fill-rule="evenodd" clip-rule="evenodd" d="M24.988,123.859c0.789,0.59,1.27,1.62,1.434,3.07h-1.84
	c-0.105-0.672-0.371-1.232-0.766-1.674c-0.406-0.438-1.039-0.662-1.914-0.662c-1.215,0-2.07,0.569-2.594,1.701
	c-0.34,0.74-0.504,1.644-0.504,2.722c0,1.093,0.238,2.008,0.719,2.753c0.473,0.738,1.219,1.11,2.246,1.11
	c0.789,0,1.402-0.229,1.859-0.688c0.461-0.455,0.777-1.084,0.953-1.879h1.84c-0.207,1.435-0.73,2.487-1.578,3.149
	c-0.84,0.662-1.914,0.991-3.227,0.991c-1.469,0-2.629-0.509-3.504-1.555c-0.875-1.034-1.312-2.332-1.312-3.891
	c0-1.906,0.461-3.384,1.422-4.451c0.965-1.056,2.188-1.587,3.68-1.587C23.16,122.965,24.188,123.262,24.988,123.859L24.988,123.859z
	"/>
<path fill-rule="evenodd" clip-rule="evenodd" d="M32.938,123.048c-1.566,0-2.848,0.547-3.813,1.631
	c-0.984,1.089-1.465,2.502-1.465,4.249c0,1.755,0.48,3.129,1.465,4.109c0.941,0.986,2.137,1.468,3.527,1.468
	c0.566,0,1.082-0.044,1.531-0.155c0.844-0.178,1.555-0.54,2.125-1.082c0.34-0.307,0.633-0.716,0.918-1.193
	c0.285-0.492,0.438-0.926,0.492-1.326h-1.871c-0.133,0.477-0.371,0.893-0.691,1.254c-0.578,0.625-1.367,0.937-2.352,0.937
	c-1.051,0-1.84-0.333-2.332-0.997c-0.504-0.667-0.766-1.542-0.797-2.648h8.187c0-1.1-0.055-1.899-0.168-2.391
	c-0.117-0.729-0.383-1.37-0.754-1.923c-0.395-0.564-0.961-1.027-1.695-1.389C34.5,123.229,33.734,123.048,32.938,123.048
	L32.938,123.048z M29.707,127.837c0.031-0.935,0.336-1.708,0.93-2.309c0.578-0.604,1.301-0.904,2.168-0.904
	c1.203,0,2.059,0.438,2.562,1.313c0.281,0.481,0.469,1.11,0.547,1.899H29.707L29.707,127.837z"/>
<path fill-rule="evenodd" clip-rule="evenodd" d="M40.293,123.283h1.793v1.538c0.535-0.623,1.098-1.082,1.688-1.357
	c0.59-0.278,1.258-0.416,1.992-0.416c1.574,0,2.648,0.543,3.219,1.614c0.305,0.582,0.457,1.424,0.457,2.524v6.951h-1.902v-6.842
	c0-0.655-0.086-1.187-0.309-1.592c-0.328-0.679-0.938-1.023-1.816-1.023c-0.461,0-0.82,0.05-1.105,0.142
	c-0.535,0.144-0.984,0.444-1.379,0.893c-0.309,0.355-0.516,0.723-0.613,1.106c-0.098,0.377-0.141,0.926-0.141,1.631v5.686h-1.883
	V123.283L40.293,123.283z"/>
<path fill-rule="evenodd" clip-rule="evenodd" d="M53.34,130.722c0.066,0.601,0.219,1.056,0.48,1.374
	c0.48,0.579,1.312,0.869,2.508,0.869c0.711,0,1.324-0.146,1.863-0.431c0.535-0.296,0.809-0.738,0.809-1.342
	c0-0.453-0.207-0.81-0.648-1.05c-0.27-0.148-0.809-0.317-1.617-0.516l-1.512-0.361c-0.973-0.224-1.684-0.481-2.145-0.771
	c-0.809-0.481-1.215-1.171-1.215-2.036c0-1.023,0.383-1.851,1.148-2.485c0.766-0.629,1.816-0.953,3.109-0.953
	c1.695,0,2.934,0.488,3.676,1.439c0.484,0.614,0.703,1.276,0.691,1.971h-1.785c-0.023-0.405-0.176-0.771-0.438-1.121
	c-0.449-0.477-1.203-0.717-2.277-0.717c-0.723,0-1.246,0.137-1.617,0.394c-0.375,0.257-0.551,0.607-0.551,1.039
	c0,0.466,0.23,0.838,0.715,1.123c0.293,0.164,0.699,0.312,1.234,0.442l1.258,0.29c1.371,0.318,2.27,0.625,2.738,0.921
	c0.734,0.47,1.105,1.197,1.105,2.189c0,0.964-0.395,1.796-1.148,2.496c-0.754,0.707-1.938,1.056-3.492,1.056
	c-1.688,0-2.867-0.366-3.57-1.1c-0.699-0.727-1.07-1.635-1.125-2.72H53.34L53.34,130.722z"/>
<path fill-rule="evenodd" clip-rule="evenodd" d="M67.594,123.048c-1.574,0-2.848,0.547-3.832,1.631
	c-0.961,1.089-1.445,2.502-1.445,4.249c0,1.755,0.484,3.129,1.445,4.109c0.973,0.986,2.145,1.468,3.535,1.468
	c0.582,0,1.082-0.044,1.543-0.155c0.844-0.178,1.543-0.54,2.113-1.082c0.34-0.307,0.645-0.716,0.93-1.193
	c0.266-0.492,0.438-0.926,0.484-1.326h-1.863c-0.133,0.477-0.371,0.893-0.699,1.254c-0.582,0.625-1.355,0.937-2.344,0.937
	c-1.051,0-1.828-0.333-2.332-0.997c-0.504-0.667-0.777-1.542-0.797-2.648h8.188c0-1.1-0.055-1.899-0.164-2.391
	c-0.121-0.729-0.375-1.37-0.758-1.923c-0.395-0.564-0.961-1.027-1.707-1.389C69.148,123.229,68.379,123.048,67.594,123.048
	L67.594,123.048z M64.352,127.837c0.047-0.935,0.351-1.708,0.941-2.309c0.57-0.604,1.293-0.904,2.156-0.904
	c1.207,0,2.07,0.438,2.598,1.313c0.262,0.481,0.438,1.11,0.512,1.899H64.352L64.352,127.837z"/>
<path fill-rule="evenodd" clip-rule="evenodd" d="M78.957,123.109c-1.555,0-2.738,0.575-3.57,1.74
	c-0.832,1.15-1.234,2.518-1.234,4.094c0,1.685,0.445,3.033,1.367,4.05c0.906,1.013,1.98,1.511,3.219,1.511
	c0.766,0,1.457-0.148,2.055-0.438c0.594-0.296,1.117-0.777,1.555-1.435v1.504h1.688v-14.91h-1.805v5.453
	c-0.426-0.492-0.801-0.85-1.141-1.045C80.512,123.283,79.809,123.109,78.957,123.109L78.957,123.109z M76.133,128.839
	c0-1.363,0.293-2.397,0.875-3.097c0.578-0.712,1.336-1.062,2.273-1.062c0.832,0,1.535,0.339,2.117,0.995
	c0.578,0.658,0.863,1.677,0.863,3.04c0,1.356-0.285,2.402-0.832,3.125c-0.547,0.738-1.269,1.1-2.125,1.1
	c-1.113,0-1.926-0.394-2.418-1.176C76.371,130.975,76.133,129.999,76.133,128.839L76.133,128.839z"/>
<path fill-rule="evenodd" clip-rule="evenodd" d="M92.684,134.136h1.75v-1.324c0.406,0.514,0.777,0.881,1.129,1.106
	c0.602,0.398,1.312,0.586,2.176,0.586c1.535,0,2.727-0.564,3.594-1.692c0.875-1.139,1.301-2.567,1.301-4.286
	c0-1.801-0.449-3.175-1.312-4.105c-0.887-0.936-2.016-1.402-3.438-1.402c-0.668,0-1.293,0.137-1.871,0.412
	c-0.57,0.268-1.074,0.668-1.488,1.187v-5.392h-1.84V134.136L92.684,134.136z M97.609,132.939c-1.359,0-2.301-0.604-2.801-1.812
	c-0.266-0.636-0.395-1.472-0.395-2.491c0-1.422,0.328-2.441,0.961-3.06c0.656-0.618,1.426-0.925,2.277-0.925
	c1.008,0,1.75,0.379,2.258,1.134c0.512,0.755,0.762,1.701,0.762,2.851c0,1.294-0.25,2.328-0.762,3.121
	C99.402,132.538,98.637,132.939,97.609,132.939L97.609,132.939z"/>
<path fill-rule="evenodd" clip-rule="evenodd" d="M111.816,123.283h2.102c-0.273,0.695-0.863,2.289-1.781,4.767
	c-0.691,1.855-1.258,3.373-1.73,4.549c-1.094,2.774-1.852,4.466-2.309,5.085c-0.461,0.607-1.227,0.914-2.324,0.914
	c-0.262,0-0.48-0.011-0.613-0.032c-0.152-0.022-0.324-0.061-0.535-0.116v-1.631c0.34,0.094,0.559,0.148,0.723,0.17
	c0.141,0.022,0.273,0.033,0.383,0.033c0.352,0,0.613-0.061,0.777-0.181c0.164-0.109,0.297-0.252,0.418-0.416
	c0.031-0.055,0.164-0.339,0.383-0.847c0.219-0.51,0.371-0.893,0.469-1.145l-4.156-11.149h2.144l3.012,8.835L111.816,123.283
	L111.816,123.283z"/>
<path fill-rule="evenodd" clip-rule="evenodd" d="M121.891,120.278h1.883v3.005h1.816v1.516h-1.816v7.04
	c0,0.373,0.152,0.629,0.414,0.756c0.141,0.076,0.395,0.109,0.746,0.109c0.086,0,0.172,0,0.281-0.007
	c0.102-0.011,0.23-0.015,0.375-0.022v1.461c-0.219,0.057-0.438,0.105-0.68,0.133c-0.231,0.021-0.481,0.037-0.754,0.037
	c-0.891,0-1.48-0.218-1.809-0.655c-0.305-0.434-0.457-0.998-0.457-1.688v-7.165h-1.523v-1.516h1.523V120.278L121.891,120.278z"/>
<path fill-rule="evenodd" clip-rule="evenodd" d="M127.492,119.227h1.906v5.524c0.438-0.549,0.844-0.926,1.203-1.156
	c0.613-0.383,1.371-0.575,2.277-0.575c1.621,0,2.727,0.548,3.316,1.653c0.309,0.603,0.473,1.435,0.473,2.508v6.955h-1.973v-6.842
	c0-0.804-0.098-1.385-0.305-1.762c-0.34-0.586-0.988-0.882-1.918-0.882c-0.789,0-1.477,0.264-2.121,0.777
	c-0.625,0.527-0.953,1.5-0.953,2.957v5.751h-1.906V119.227L127.492,119.227z"/>
<path fill-rule="evenodd" clip-rule="evenodd" d="M144.066,123.048c-1.566,0-2.844,0.547-3.828,1.631
	c-0.965,1.089-1.449,2.502-1.449,4.249c0,1.755,0.484,3.129,1.449,4.109c0.961,0.986,2.152,1.468,3.543,1.468
	c0.57,0,1.086-0.044,1.535-0.155c0.832-0.178,1.555-0.54,2.121-1.082c0.328-0.307,0.637-0.716,0.922-1.193
	c0.281-0.492,0.438-0.926,0.48-1.326h-1.863c-0.129,0.477-0.371,0.893-0.688,1.254c-0.578,0.625-1.367,0.937-2.352,0.937
	c-1.051,0-1.84-0.333-2.332-0.997c-0.504-0.667-0.777-1.542-0.801-2.648h8.188c0-1.1-0.055-1.899-0.164-2.391
	c-0.121-0.729-0.383-1.37-0.754-1.923c-0.383-0.564-0.965-1.027-1.695-1.389C145.621,123.229,144.867,123.048,144.066,123.048
	L144.066,123.048z M140.828,127.837c0.031-0.935,0.348-1.708,0.918-2.309c0.602-0.604,1.312-0.904,2.191-0.904
	c1.203,0,2.055,0.438,2.559,1.313c0.285,0.481,0.461,1.11,0.547,1.899H140.828L140.828,127.837z"/>
<path fill-rule="evenodd" clip-rule="evenodd" d="M167.863,119.649c1.504,0.782,2.434,2.141,2.762,4.072h-2.07
	c-0.25-1.078-0.754-1.848-1.52-2.336c-0.777-0.488-1.754-0.723-2.934-0.723c-1.391,0-2.562,0.509-3.516,1.548
	c-0.953,1.03-1.426,2.574-1.426,4.621c0,1.769,0.395,3.212,1.172,4.322c0.801,1.113,2.082,1.66,3.855,1.66
	c1.355,0,2.473-0.384,3.371-1.172c0.898-0.782,1.355-2.051,1.379-3.804h-4.828v-1.668h6.777v7.968h-1.359l-0.5-1.899
	c-0.691,0.751-1.293,1.27-1.84,1.561c-0.898,0.492-2.039,0.743-3.414,0.743c-1.797,0-3.352-0.575-4.633-1.718
	c-1.41-1.429-2.113-3.393-2.113-5.899c0-2.502,0.703-4.49,2.059-5.973c1.312-1.396,3-2.095,5.078-2.095
	C165.586,118.857,166.824,119.118,167.863,119.649L167.863,119.649z"/>
<path fill-rule="evenodd" clip-rule="evenodd" d="M178.57,122.965c-1.598,0-2.867,0.542-3.832,1.62
	c-0.949,1.078-1.422,2.535-1.422,4.351c0,1.71,0.461,3.062,1.359,4.068c0.895,1.002,2.121,1.5,3.656,1.5
	c1.836,0,3.195-0.564,4.082-1.703c0.863-1.132,1.301-2.589,1.301-4.329c0-1.807-0.492-3.181-1.488-4.111
	C181.242,123.432,180.016,122.965,178.57,122.965L178.57,122.965z M178.527,132.939c-1.137,0-1.969-0.388-2.473-1.154
	c-0.527-0.772-0.789-1.735-0.789-2.885c0-1.204,0.262-2.234,0.789-3.087c0.504-0.854,1.336-1.274,2.492-1.274
	c1.285,0,2.203,0.503,2.715,1.499c0.332,0.635,0.504,1.45,0.504,2.469c0,1.121-0.215,2.14-0.676,3.052
	C180.609,132.479,179.762,132.939,178.527,132.939L178.527,132.939z"/>
<polygon fill-rule="evenodd" clip-rule="evenodd" points="186.988,123.283 189.988,132.129 193.106,123.283 195.188,123.283 
	190.953,134.136 188.949,134.136 184.789,123.283 186.988,123.283 "/>
<path fill-rule="evenodd" clip-rule="evenodd" d="M201.406,123.048c-1.566,0-2.848,0.547-3.82,1.631
	c-0.965,1.089-1.457,2.502-1.457,4.249c0,1.755,0.492,3.129,1.445,4.109c0.977,0.986,2.156,1.468,3.547,1.468
	c0.57,0,1.082-0.044,1.531-0.155c0.855-0.178,1.555-0.54,2.125-1.082c0.352-0.307,0.645-0.716,0.93-1.193
	c0.262-0.492,0.43-0.926,0.492-1.326h-1.871c-0.141,0.477-0.383,0.893-0.699,1.254c-0.582,0.625-1.371,0.937-2.355,0.937
	c-1.051,0-1.828-0.333-2.332-0.997c-0.492-0.667-0.766-1.542-0.797-2.648h8.199c0-1.1-0.055-1.899-0.164-2.391
	c-0.133-0.729-0.395-1.37-0.766-1.923c-0.375-0.564-0.965-1.027-1.699-1.389C202.973,123.229,202.203,123.048,201.406,123.048
	L201.406,123.048z M198.164,127.837c0.047-0.935,0.352-1.708,0.93-2.309c0.594-0.604,1.316-0.904,2.18-0.904
	c1.207,0,2.059,0.438,2.574,1.313c0.273,0.481,0.449,1.11,0.535,1.899H198.164L198.164,127.837z"/>
<path fill-rule="evenodd" clip-rule="evenodd" d="M208.75,123.283h1.809v1.873c0.152-0.362,0.512-0.806,1.094-1.327
	c0.57-0.518,1.25-0.782,2.004-0.782c0.031,0,0.098,0.004,0.184,0.011c0.078,0.011,0.219,0.028,0.43,0.05v1.893
	c-0.109-0.022-0.223-0.043-0.32-0.043c-0.086-0.011-0.195-0.011-0.305-0.011c-0.965,0-1.707,0.296-2.211,0.893
	c-0.523,0.59-0.789,1.276-0.789,2.04v6.256h-1.895V123.283L208.75,123.283z"/>
<path fill-rule="evenodd" clip-rule="evenodd" d="M215.898,123.283h1.82v1.538c0.523-0.623,1.094-1.082,1.695-1.357
	c0.578-0.278,1.238-0.416,1.969-0.416c1.586,0,2.66,0.543,3.23,1.614c0.305,0.582,0.461,1.424,0.461,2.524v6.951h-1.906v-6.842
	c0-0.655-0.109-1.187-0.309-1.592c-0.328-0.679-0.93-1.023-1.816-1.023c-0.457,0-0.828,0.05-1.117,0.142
	c-0.512,0.144-0.961,0.444-1.355,0.893c-0.328,0.355-0.527,0.723-0.625,1.106c-0.098,0.377-0.141,0.926-0.141,1.631v5.686h-1.906
	V123.283L215.898,123.283z"/>
<path fill-rule="evenodd" clip-rule="evenodd" d="M227.863,123.283h1.871v1.559c0.438-0.535,0.855-0.923,1.207-1.171
	c0.633-0.416,1.336-0.623,2.109-0.623c0.91,0,1.613,0.214,2.16,0.641c0.316,0.252,0.59,0.607,0.84,1.073
	c0.43-0.575,0.922-1.008,1.48-1.291c0.566-0.281,1.227-0.423,1.926-0.423c1.52,0,2.562,0.532,3.109,1.581
	c0.285,0.571,0.438,1.337,0.438,2.295v7.212h-1.949v-7.525c0-0.728-0.195-1.22-0.578-1.487c-0.375-0.275-0.832-0.405-1.379-0.405
	c-0.758,0-1.391,0.229-1.938,0.71c-0.539,0.481-0.812,1.283-0.812,2.397v6.311h-1.883v-7.081c0-0.738-0.098-1.27-0.285-1.605
	c-0.281-0.507-0.809-0.771-1.598-0.771c-0.723,0-1.355,0.268-1.949,0.81c-0.57,0.536-0.875,1.504-0.875,2.907v5.74h-1.895V123.283
	L227.863,123.283z"/>
<path fill-rule="evenodd" clip-rule="evenodd" d="M250.379,123.048c-1.574,0-2.844,0.547-3.816,1.631
	c-0.977,1.089-1.457,2.502-1.457,4.249c0,1.755,0.48,3.129,1.445,4.109c0.961,0.986,2.145,1.468,3.547,1.468
	c0.566,0,1.07-0.044,1.531-0.155c0.832-0.178,1.543-0.54,2.113-1.082c0.34-0.307,0.645-0.716,0.93-1.193
	c0.273-0.492,0.438-0.926,0.48-1.326h-1.859c-0.133,0.477-0.371,0.893-0.699,1.254c-0.57,0.625-1.359,0.937-2.344,0.937
	c-1.062,0-1.828-0.333-2.332-0.997c-0.504-0.667-0.766-1.542-0.809-2.648h8.199c0-1.1-0.066-1.899-0.164-2.391
	c-0.133-0.729-0.387-1.37-0.758-1.923c-0.395-0.564-0.949-1.027-1.707-1.389C251.934,123.229,251.168,123.048,250.379,123.048
	L250.379,123.048z M247.141,127.837c0.035-0.935,0.352-1.708,0.934-2.309c0.578-0.604,1.301-0.904,2.164-0.904
	c1.215,0,2.07,0.438,2.574,1.313c0.285,0.481,0.461,1.11,0.547,1.899H247.141L247.141,127.837z"/>
<path fill-rule="evenodd" clip-rule="evenodd" d="M257.715,123.283h1.816v1.538c0.527-0.623,1.098-1.082,1.688-1.357
	c0.59-0.278,1.246-0.416,1.969-0.416c1.598,0,2.672,0.543,3.23,1.614c0.309,0.582,0.461,1.424,0.461,2.524v6.951h-1.895v-6.842
	c0-0.655-0.098-1.187-0.305-1.592c-0.332-0.679-0.941-1.023-1.832-1.023c-0.445,0-0.82,0.05-1.102,0.142
	c-0.516,0.144-0.977,0.444-1.371,0.893c-0.316,0.355-0.523,0.723-0.609,1.106c-0.102,0.377-0.145,0.926-0.145,1.631v5.686h-1.906
	V123.283L257.715,123.283z"/>
<path fill-rule="evenodd" clip-rule="evenodd" d="M270.02,120.278h1.906v3.005h1.805v1.516h-1.805v7.04
	c0,0.373,0.129,0.629,0.395,0.756c0.152,0.076,0.395,0.109,0.742,0.109c0.09,0,0.199,0,0.305-0.007
	c0.113-0.011,0.223-0.015,0.363-0.022v1.461c-0.219,0.057-0.438,0.105-0.688,0.133c-0.219,0.021-0.484,0.037-0.746,0.037
	c-0.887,0-1.488-0.218-1.797-0.655c-0.305-0.434-0.48-0.998-0.48-1.688v-7.165h-1.512v-1.516h1.512V120.278L270.02,120.278z"/>
<path fill-rule="evenodd" clip-rule="evenodd" d="M286.102,122.965c-1.609,0-2.879,0.542-3.844,1.62
	c-0.941,1.078-1.422,2.535-1.422,4.351c0,1.71,0.449,3.062,1.355,4.068c0.898,1.002,2.125,1.5,3.656,1.5
	c1.84,0,3.207-0.564,4.082-1.703c0.867-1.132,1.305-2.589,1.305-4.329c0-1.807-0.48-3.181-1.488-4.111
	C288.762,123.432,287.535,122.965,286.102,122.965L286.102,122.965z M286.047,132.939c-1.141,0-1.961-0.388-2.484-1.154
	c-0.516-0.772-0.777-1.735-0.777-2.885c0-1.204,0.262-2.234,0.777-3.087c0.523-0.854,1.355-1.274,2.504-1.274
	c1.293,0,2.203,0.503,2.727,1.499c0.328,0.635,0.492,1.45,0.492,2.469c0,1.121-0.23,2.14-0.68,3.052
	C288.125,132.479,287.285,132.939,286.047,132.939L286.047,132.939z"/>
<path fill-rule="evenodd" clip-rule="evenodd" d="M294.418,119.982c0.441-0.618,1.293-0.923,2.555-0.923
	c0.117,0,0.238,0,0.371,0.005c0.129,0.006,0.262,0.011,0.426,0.021v1.659c-0.188-0.006-0.34-0.018-0.426-0.022
	c-0.086-0.006-0.176-0.011-0.242-0.011c-0.578,0-0.918,0.153-1.027,0.432c-0.109,0.289-0.164,1.024-0.164,2.201h1.859v1.428h-1.859
	v9.364h-1.906v-9.364h-1.543v-1.428h1.543v-1.698C294.051,120.886,294.168,120.339,294.418,119.982L294.418,119.982z"/>
<path fill-rule="evenodd" clip-rule="evenodd" d="M312.406,118.857c-2.605,0-4.555,0.908-5.887,2.746
	c-1.031,1.435-1.559,3.16-1.559,5.163c0,2.239,0.613,4.077,1.816,5.533c1.359,1.516,3.219,2.271,5.586,2.271
	c2.539,0,4.484-0.871,5.863-2.593c1.172-1.474,1.754-3.319,1.754-5.546c0-2.047-0.504-3.733-1.531-5.052
	C317.137,119.693,315.121,118.857,312.406,118.857L312.406,118.857z M312.606,132.764c-1.949,0-3.352-0.57-4.207-1.698
	c-0.875-1.132-1.312-2.518-1.312-4.159c0-2.058,0.504-3.617,1.523-4.675c1.004-1.049,2.32-1.57,3.914-1.57
	c1.656,0,2.949,0.524,3.898,1.587c0.953,1.062,1.438,2.474,1.438,4.22c0,1.657-0.418,3.121-1.25,4.39
	C315.797,132.129,314.465,132.764,312.606,132.764L312.606,132.764z"/>
<path fill-rule="evenodd" clip-rule="evenodd" d="M322.234,123.283h1.809v1.538c0.535-0.623,1.082-1.082,1.695-1.357
	c0.582-0.278,1.246-0.416,1.973-0.416c1.586,0,2.672,0.543,3.215,1.614c0.309,0.582,0.461,1.424,0.461,2.524v6.951h-1.891v-6.842
	c0-0.655-0.102-1.187-0.297-1.592c-0.34-0.679-0.953-1.023-1.84-1.023c-0.438,0-0.82,0.05-1.098,0.142
	c-0.523,0.144-0.984,0.444-1.375,0.893c-0.309,0.355-0.527,0.723-0.613,1.106c-0.09,0.377-0.156,0.926-0.156,1.631v5.686h-1.883
	V123.283L322.234,123.283z"/>
<path fill-rule="evenodd" clip-rule="evenodd" d="M334.539,120.278h1.895v3.005h1.805v1.516h-1.805v7.04
	c0,0.373,0.141,0.629,0.406,0.756c0.152,0.076,0.395,0.109,0.742,0.109c0.09,0,0.188,0,0.285-0.007
	c0.109-0.011,0.242-0.015,0.371-0.022v1.461c-0.215,0.057-0.438,0.105-0.68,0.133c-0.227,0.021-0.48,0.037-0.75,0.037
	c-0.891,0-1.48-0.218-1.797-0.655c-0.32-0.434-0.473-0.998-0.473-1.688v-7.165h-1.52v-1.516h1.52V120.278L334.539,120.278z"/>
<path fill-rule="evenodd" clip-rule="evenodd" d="M343.145,127.931c-1.062,0.119-1.902,0.47-2.562,1.029
	c-0.656,0.551-0.984,1.329-0.984,2.337c0,0.919,0.34,1.692,1.008,2.3c0.656,0.607,1.512,0.908,2.551,0.908
	c0.863,0,1.664-0.177,2.375-0.532c0.723-0.355,1.277-0.782,1.664-1.269c0.062,0.431,0.176,0.76,0.328,0.99
	c0.285,0.449,0.766,0.673,1.422,0.673c0.262,0,0.484-0.018,0.637-0.04c0.152-0.011,0.371-0.069,0.668-0.152v-1.331
	c-0.121,0.022-0.23,0.033-0.34,0.04c-0.109,0.015-0.195,0.026-0.285,0.026c-0.25,0-0.43-0.066-0.504-0.181
	c-0.086-0.113-0.129-0.261-0.129-0.449v-6.234c0-1.023-0.406-1.783-1.227-2.282c-0.832-0.499-1.906-0.745-3.219-0.745
	c-1.141,0-2.148,0.263-3,0.788c-0.875,0.527-1.316,1.457-1.359,2.798h1.75c0.07-0.549,0.223-0.969,0.461-1.254
	c0.406-0.503,1.105-0.76,2.105-0.76c0.852,0,1.508,0.142,1.965,0.42c0.465,0.274,0.68,0.723,0.68,1.341
	c0,0.296-0.043,0.525-0.129,0.684c-0.145,0.302-0.418,0.477-0.863,0.531L343.145,127.931L343.145,127.931z M341.566,131.247
	c0-0.706,0.285-1.204,0.879-1.515c0.336-0.186,0.852-0.33,1.539-0.412l1.152-0.124c0.352-0.039,0.711-0.104,1.074-0.209
	c0.359-0.087,0.656-0.218,0.895-0.362v1.468c0,1.117-0.535,1.921-1.598,2.397c-0.613,0.301-1.27,0.449-1.926,0.449
	c-0.547,0-1.008-0.152-1.422-0.46C341.766,132.179,341.566,131.767,341.566,131.247L341.566,131.247z"/>
<path fill-rule="evenodd" clip-rule="evenodd" d="M352.109,123.283h1.805v1.873c0.152-0.362,0.516-0.806,1.098-1.327
	c0.59-0.518,1.246-0.782,2.004-0.782c0.031,0,0.098,0.004,0.184,0.011c0.066,0.011,0.219,0.028,0.418,0.05v1.893
	c-0.102-0.022-0.207-0.043-0.309-0.043c-0.086-0.011-0.195-0.011-0.305-0.011c-0.965,0-1.711,0.296-2.223,0.893
	c-0.516,0.59-0.777,1.276-0.777,2.04v6.256h-1.895V123.283L352.109,123.283z"/>
<polygon fill-rule="evenodd" clip-rule="evenodd" points="359.277,123.344 359.277,123.344 359.277,134.136 361.164,134.136 
	361.164,123.344 "/>
<polygon fill-rule="evenodd" clip-rule="evenodd" points="359.277,119.227 359.277,119.227 359.277,121.33 361.164,121.33 
	361.164,119.227 "/>
<path fill-rule="evenodd" clip-rule="evenodd" d="M368.527,122.965c-1.605,0-2.887,0.542-3.84,1.62
	c-0.941,1.078-1.434,2.535-1.434,4.351c0,1.71,0.457,3.062,1.355,4.068c0.91,1.002,2.137,1.5,3.668,1.5
	c1.84,0,3.195-0.564,4.074-1.703c0.887-1.132,1.312-2.589,1.312-4.329c0-1.807-0.492-3.181-1.488-4.111
	C371.191,123.432,369.965,122.965,368.527,122.965L368.527,122.965z M368.465,132.939c-1.129,0-1.961-0.388-2.465-1.154
	c-0.523-0.772-0.785-1.735-0.785-2.885c0-1.204,0.262-2.234,0.785-3.087c0.504-0.854,1.348-1.274,2.484-1.274
	c1.305,0,2.199,0.503,2.738,1.499c0.328,0.635,0.492,1.45,0.492,2.469c0,1.121-0.242,2.14-0.699,3.052
	C370.555,132.479,369.711,132.939,368.465,132.939L368.465,132.939z"/>
<path fill-rule="evenodd" clip-rule="evenodd" d="M471.551,105.337c-0.211,0.951-0.422,1.902-0.633,2.854
	c-0.203,0.807-0.148,1.685-0.316,2.457c0,0.423,0,0.846,0,1.269c-0.109,1.198,0.156,2.428,0.156,3.646
	c-0.086,0.072-0.004-0.006-0.078,0.079c-0.051,0-0.105,0-0.156,0c-2.367-3.721-1.312-8.927-0.32-13.158c0.133,0,0.266,0,0.398,0
	c0.633,0.41,1.957,0.488,2.695,0.793c2.176,0.899,5.906,3.318,6.102,6.024c-0.121,0.042-0.133,0.053-0.316,0.079
	C478,107.791,473.934,105.68,471.551,105.337L471.551,105.337z M479.242,105.337c1.285,0.071,2.086,1.567,2.695,2.378
	c0.488,0.656,1.172,1.241,1.664,1.902c1.125,1.526,2.082,3.1,4.199,3.646c0.859,0.221,2.031,0.08,3.012,0.079
	c2.207,0,4.363-0.114,6.422,0c1.125,0.062,3.16-0.217,3.566,0.555c0.207,0.397-0.332,0.579-0.555,0.793
	c-5.43-0.085-9.062,0.314-12.684,2.219c-1.004,0.529-1.957,1.235-2.852,1.902c-0.719,0.536-1.301,1.495-2.539,1.269
	c0-0.053,0-0.106,0-0.159c-0.289-0.388-0.141-1.381,0-1.902c0.297-1.083,0.812-2.899,0.477-4.438
	c-0.555-2.55-1.172-4.364-2.457-6.104C479.695,106.807,478.582,106.448,479.242,105.337L479.242,105.337z M488.832,108.191
	c0.273-0.01,0.637-0.026,0.793,0.079c0.25,0.081,0.348,0.2,0.477,0.396c0.32,0.408,0.094,1.087-0.082,1.427
	c-0.488,0.95-1.43,2.002-2.852,1.981c-0.027-0.079-0.055-0.158-0.082-0.238c-0.215-0.275-0.168-0.906-0.078-1.268
	C487.457,108.789,487.637,109.106,488.832,108.191L488.832,108.191z M467.828,113.501c0.156,0,0.316,0,0.473,0
	c0.43,0.773,0.418,1.942,0.715,2.854c0.547,1.668,1.352,3.026,2.297,4.28c0.637,0.842,1.988,1.632,3.016,2.061
	c0.684,0.286,1.562,0.335,1.82,1.03c0.086,0.123,0.082,0.324,0.082,0.555c-1.191,1.125-2.836,1.735-4.203,2.695
	c-1.738,1.222-3.375,3.104-4.52,4.915c-0.711,1.129-1.441,2.415-1.98,3.646c-0.258,0.591-0.332,1.439-0.949,1.665
	c-0.105,0.07-0.195,0.071-0.398,0.08c0-0.053,0-0.106,0-0.159c-0.32-0.548,0.945-2.939,1.191-3.408
	c0.578-1.116,0.996-2.174,1.504-3.329c0.859-1.96,1.996-3.561,2.535-5.945c0.266-1.17-0.25-2.433-0.473-3.25
	c-0.434-1.565-0.539-3.006-0.953-4.597C467.777,115.794,467.441,114.384,467.828,113.501L467.828,113.501z M495.57,116.909
	c0-0.105,0-0.211,0-0.317c0.078-0.026,0.156-0.053,0.238-0.079c0.652-0.455,3.965-0.668,5.23-0.476
	c4.109,0.625,7.477,1.425,10.543,3.012c0.719,0.373,3.18,1.255,3.328,1.982c-1.25,0.706-2.356,1.766-3.566,2.536
	c-2.762,1.752-5.645,3.153-9.039,4.28c-1.887,0.627-4.641,1.457-7.289,0.951c0-0.105,0-0.211,0-0.317
	c0.086-0.072,0.004,0.006,0.078-0.079c1.191-0.111,2.367-0.699,3.328-1.11c2.668-1.139,4.973-2.31,7.215-3.805
	c0.672-0.45,2.676-1.442,2.93-2.14c-0.395-0.103-0.648-0.372-0.949-0.555c-0.828-0.505-1.832-0.968-2.695-1.348
	C502.152,118.229,499.199,117.228,495.57,116.909L495.57,116.909z M466.797,123.568c0.891,0.074,1.723,0.481,1.824,1.348
	c-0.789,0.838-1.461,1.714-3.016,1.348c-0.129-0.159-0.262-0.317-0.395-0.476c-0.031-1.441,0.492-1.493,1.188-2.141
	C466.602,123.641,466.695,123.637,466.797,123.568L466.797,123.568z M481.617,127.055c1.512-0.019,2.625,1.432,3.648,2.061
	c1.449,0.89,3.242,1.129,5.152,1.585c2.137,0.511,6.219-0.248,7.848-0.713c0.785-0.225,1.797-0.39,1.902,0.555
	c-0.066,0.081-0.031,0.022-0.082,0.159c-2.652,1.458-6.688,1.493-9.984,2.299c-2,0.488-3.836,0.427-5.312,1.347
	c-1.379,0.861-2.367,2.277-3.328,3.567c-1.188,1.591-2.691,3.017-3.883,4.597c-0.605,0.799-1.941,2.748-3.094,2.854
	c-0.121-0.222-0.16-0.393-0.156-0.792c0.062-0.093,0.059-0.133,0.078-0.317c0.906-0.622,1.574-1.72,2.219-2.616
	c1.719-2.39,3.133-4.806,4.043-8.085C481.168,131.744,480.488,128.283,481.617,127.055L481.617,127.055z M522.836,127.531
	c6.477-0.067,9.16,3.105,10.699,8.005c0.449,1.424,0.824,4.141,0.398,6.024c-0.227,1.004-0.344,2.102-0.715,3.012
	c-1.129,2.762-2.938,4.822-5.707,5.945c-1.02,0.413-2.207,0.378-3.406,0.634c-1.539,0.328-4.277-0.579-5.152-1.031
	c-2.73-1.409-4.32-3.441-5.312-6.579c-0.219-0.697-0.145-1.294-0.316-2.061c-0.242-1.078-0.348-3.008-0.078-4.201
	c0.234-1.042,0.328-2.154,0.711-3.091c1.098-2.686,2.887-4.831,5.551-5.945c0.742-0.31,1.633-0.447,2.457-0.634
	C522.273,127.54,522.629,127.658,522.836,127.531L522.836,127.531z M589.813,128.086c1.414-0.029,1.578,0.503,2.219,1.189
	c0.109,1.095-0.062,2.083-0.949,2.378c-0.52,0.429-1.344,0.144-1.902,0c-0.199-0.308-0.531-0.686-0.793-0.951
	c-0.152-1.71,0.219-1.702,1.109-2.536C589.68,128.15,589.719,128.15,589.813,128.086L589.813,128.086z M556.523,129.275
	c0,1.585,0,3.171,0,4.756c1.426,0,2.852,0,4.281,0c0,0.845,0,1.691,0,2.537c-1.43,0-2.855,0-4.281,0c0,2.404,0,4.809,0,7.213
	c0,2.064,0.012,3.735,1.266,4.518c1.082,0.673,2.332,0.01,3.332-0.159c0,0.845,0,1.691,0,2.537c-0.027,0-0.055,0-0.082,0
	c0,0.026,0,0.053,0,0.079c-0.684,0.132-1.371,0.264-2.059,0.396c-0.656,0.139-1.578-0.109-2.062-0.238
	c-1.5-0.4-2.539-0.991-3.09-2.299c-0.484-1.148-0.398-2.831-0.398-4.439c0-2.536,0-5.073,0-7.609c-0.816,0-1.637,0-2.457,0
	c0-0.026,0-0.053,0-0.08c0.027,0,0.055,0,0.082,0c0.633-0.66,1.266-1.321,1.902-1.982c0.156-0.132,0.316-0.264,0.473-0.396
	c0-1.295,0-2.589,0-3.884c0.027,0,0.055,0,0.082,0c0-0.026,0-0.053,0-0.079C554.625,130.069,555.41,129.388,556.523,129.275
	L556.523,129.275z M522.676,130.464c-0.531,0.335-1.699,0.353-2.297,0.713c-1.723,1.04-2.816,2.746-3.488,4.835
	c-0.234,0.734-0.137,1.377-0.316,2.22c-0.18,0.841-0.102,2.178,0.078,2.933c0.789,3.317,1.379,5.282,4.281,6.5
	c0.762,0.32,2.141,0.839,3.406,0.555c2.965-0.663,4.594-1.972,5.629-4.518c0.309-0.754,0.449-1.635,0.633-2.457
	c0.324-1.424,0.066-3.459-0.234-4.597C529.336,132.789,527.629,130.422,522.676,130.464L522.676,130.464z M547.328,150.755
	c0-2.642,0-5.285,0-7.926c0-2.199-0.027-4.272-0.953-5.548c-0.445-0.621-1.336-0.922-2.219-1.11
	c-1.25-0.267-2.637,0.733-3.168,1.268c-2.41,2.416-1.773,8.529-1.746,13.316c-0.977,0-1.953,0-2.934,0c0-5.574,0-11.15,0-16.725
	c0.953,0,1.906,0,2.856,0c0,0.872,0,1.744,0,2.616c0.027,0,0.051,0,0.078,0c0-0.053,0-0.105,0-0.159
	c0.238-0.249,0.348-0.59,0.555-0.872c0.441-0.594,1.301-1.079,1.984-1.427c0.617-0.316,1.398-0.473,2.297-0.476
	c5.715-0.018,6.262,3.89,6.262,9.591c0,2.457,0,4.915,0,7.372C549.582,150.93,548.238,150.761,547.328,150.755L547.328,150.755z
	 M575.465,150.755c-0.922,0-1.848,0-2.773,0c0-0.713,0-1.427,0-2.14c-0.027,0-0.051,0-0.078,0c0,0.053,0,0.105,0,0.159
	c-0.355,0.247-0.531,0.696-0.871,0.951c-0.547,0.408-1.23,0.865-1.902,1.109c-0.664,0.242-1.805,0.396-2.539,0.238
	c-0.652-0.142-1.164,0.016-1.742-0.158c-1.957-0.59-3.086-1.802-3.566-3.884c-0.406-1.749,0.356-3.223,0.949-4.042
	c1.781-2.456,5.117-2.565,9.434-2.536c0.047-2.227-0.695-3.624-2.379-4.122c-0.344-0.026-0.688-0.053-1.027-0.08
	c-0.656-0.136-1.66-0.05-2.301,0.159c-0.582,0.238-1.164,0.476-1.742,0.713c-0.344,0.213-0.617,0.562-1.031,0.713
	c0-0.264,0-0.528,0-0.792c-0.203-0.32-0.156-1.412-0.16-1.823c0.973-0.467,1.938-1.028,3.094-1.348
	c0.637-0.176,1.285-0.158,2.059-0.158c2.895,0,4.734,0.812,5.707,2.695c0.766,1.48,0.715,3.606,0.715,5.866
	C575.309,145.143,575.402,148.1,575.465,150.755L575.465,150.755z M600.832,133.714c4.34-0.051,6.57,1.178,8.164,3.805
	c0.43,0.71,0.719,1.681,0.949,2.536c0.289,1.061,0.32,2.602,0.082,3.646c-0.113,0.489-0.02,0.832-0.16,1.269
	c-1.047,3.244-3.008,5.292-6.5,6.103c-1.648,0.383-3.555-0.176-4.598-0.713c-0.828-0.429-1.449-0.813-2.141-1.347
	c-1.996-1.541-3.336-6.22-2.219-9.67c0.711-2.186,2.184-4.12,4.203-4.994C599.199,134.092,600.316,134.041,600.832,133.714
	L600.832,133.714z M586.801,134.03c0,0.925,0,1.85,0,2.774c-0.051,0-0.105,0-0.156,0c-1.227-0.8-3.289,0.502-3.805,1.03
	c-2.344,2.386-1.781,8.123-1.746,12.841c-0.781,0.261-2.156,0.085-3.09,0.079c-0.336-1.019-0.078-3.855-0.078-5.152
	c0-3.804,0-7.609,0-11.414c0.977,0,1.953,0,2.93,0c0,0.898,0,1.796,0,2.695c0.027,0,0.055,0,0.082,0c0-0.053,0-0.105,0-0.159
	c0.555-0.553,0.863-1.357,1.504-1.823C583.691,133.997,584.781,133.97,586.801,134.03L586.801,134.03z M588.703,134.03
	c1.004,0,2.008,0,3.012,0c0.336,1.019,0.082,3.855,0.082,5.152c0,3.831,0,7.662,0,11.493c-0.781,0.261-2.16,0.085-3.094,0.079
	C588.703,145.181,588.703,139.605,588.703,134.03L588.703,134.03z M467.828,134.347c-0.062,1.01-0.797,2.371-1.109,3.329
	c-0.805,2.455-1.316,6.126-1.348,9.195c0.023,0,0.051,0,0.078,0c0.742-0.644,1.922-0.829,2.773-1.348
	c1.59-0.968,3.133-1.997,4.598-3.091c0.574-0.43,2.309-2.46,2.852-2.536c0,0.026,0,0.053,0,0.079c0.027,0,0.055,0,0.082,0
	c-0.332,1.399-1.387,2.474-2.141,3.487c-1.859,2.501-4.258,4.132-6.977,5.787c-0.957,0.583-2.594,1.703-3.883,1.823
	c-0.066-0.194-0.082-0.49-0.078-0.793c0.164-0.282-0.008-0.797,0.078-1.189c0.16-1.242,0.316-2.484,0.477-3.726
	c0.738-2.953,1.305-5.721,2.535-8.084C466.137,136.568,467.035,134.462,467.828,134.347L467.828,134.347z M485.504,135.061
	c1.285-0.03,2.383,0.883,2.695,1.823c0.492,1.485-0.527,2.645-1.902,2.616c-0.422-0.318-0.902-0.423-1.191-0.872
	C484.445,137.59,484.875,135.727,485.504,135.061L485.504,135.061z M601.781,136.171c-0.481,0.295-1.445,0.3-1.981,0.634
	c-1.219,0.758-2.012,2.201-2.457,3.725c-0.988,3.378,0.875,6.792,3.012,7.688c0.516,0.215,1.418,0.598,2.297,0.396
	c2.301-0.527,3.484-1.889,4.125-4.042C608.004,140.445,605.606,136.159,601.781,136.171L601.781,136.171z M572.375,142.829
	c-2.863-0.083-5.609-0.123-6.816,1.665c-0.504,0.745-0.637,2.004-0.078,2.854c0.828,1.263,3.223,1.631,4.836,0.792
	C572.012,147.256,572.426,145.504,572.375,142.829L572.375,142.829z"/>
</svg>
