<?xml version="1.0" encoding="utf-8"?>
<!-- Generator: Adobe Illustrator 18.1.1, SVG Export Plug-In . SVG Version: 6.00 Build 0)  -->
<svg version="1.1" id="Layer_1" xmlns="http://www.w3.org/2000/svg" xmlns:xlink="http://www.w3.org/1999/xlink" x="0px" y="0px"
	 viewBox="0 0 1920 426.4" width="614.907" height="155.28"  preserveAspectRatio="xMinYMid" enable-background="new 0 0 1920 426.4" xml:space="preserve">
<g>
	<g>
		<g>
			<g>
				<g>
					<g>
						<g>
							<g enable-background="new    ">
								<path d="M1477.6,345.6c0.3-0.3,0.3-0.6,0.3-0.9c0-0.3,0-0.9-0.6-1.6c-0.9-1.3-3.1-2.2-4.7-2.2c-2.5,0.3-4.7,2.2-5,4.7
									c-0.3,2.2,1.3,4.1,3.8,3.8C1473.2,349.4,1476.4,347.2,1477.6,345.6z"/>
								<path d="M1501.5,342.5c0.3-1.3-1.6-2.5-5-3.8c-10.7-3.8-17-13.5-19.2-28l0,0l0,0c-0.6-0.3-1.3-0.9-1.9-0.3
									c-1.3,1.3-0.6,6.3,2.8,20.4l1.3,5.7c0.6,3.1,0.9,5.7,0.6,8.2c-0.3,2.5-1.3,5-2.8,8.8l-3.1,6.3c-8.2,16.7-11,22.9-9.7,23.9
									c0.6,0.6,1.3,0,2.2-0.9l0,0v-0.3c2.2-5.3,4.7-10.1,7.2-14.5c6-9.4,12.9-16,21.4-20.4c3.1-1.6,5-2.8,5.7-4.1
									C1501.5,343.1,1501.5,342.8,1501.5,342.5z"/>
								<path d="M1575,313.6L1575,313.6c0.3,0,0.3,0,0.3,0c0.9-0.3,1.9-0.9,2.2-1.6c0-0.3,0.3-0.3,0.3-0.6c0-1.9-7.5-2.2-27.3-1.9
									h-7.2c-3.8,0-6.6-0.3-8.8-1.3s-4.1-2.5-6-5l-3.5-4.4c-8.8-11.3-12.3-14.8-13.8-13.8c-0.3,0-0.3,0.3-0.3,0.3
									c-0.3,0.6-0.3,1.3-0.3,1.9l0,0l0,0c9.7,9.7,13.2,22,10.1,35.5c-0.9,4.4-0.9,6.9,0,7.2c1.3,0.6,3.5-0.6,7.2-3.8
									C1539.5,316.4,1555.2,312,1575,313.6z"/>
								<path d="M1543,293.8c-2.2-0.9-5.3,0.6-6.9,3.5c-1.6,2.5-1.9,7.5-0.3,8.2c1.6,0.6,6.3-2.5,8.2-5
									C1545.5,297.5,1545.2,294.4,1543,293.8z"/>
								<path d="M1515.6,387.4l5-6.3c2.8-3.5,5-5.7,7.9-7.2c2.5-1.6,5.7-2.5,9.7-3.1l7.5-1.3c21.4-3.5,29.2-5,29.5-7.5
									c0-0.9-1.3-1.6-2.2-1.9c0,0,0,0-0.3,0h-0.3c-21.4,5.3-37.4,3.5-48.1-5.3c-3.5-2.8-5.3-3.5-6.6-2.8c-0.3,0.3-0.6,0.3-0.6,0.6
									c-0.6,1.3-0.9,3.5-0.9,7.2c0.3,10.1-2.8,20.7-9.4,31.1c-2.8,4.7-6.6,9.4-10.7,13.8l0,0v0.3c-0.3,0.9-0.6,2.5,0.3,2.8
									C1497.7,409.1,1502.8,403.4,1515.6,387.4z"/>
								<path d="M1528.8,386.5c0.6,1.6,1.9,2.8,3.5,3.1c1.3,0.3,2.5,0.3,3.5-0.3s1.9-1.6,2.5-3.1c0.6-1.6,0.3-3.5-0.3-5
									c-1.3-2.8-6.3-5.7-7.9-4.4c-0.3,0-0.6,0.3-0.6,0.6c-0.3,0.3-0.3,0.6-0.6,1.3C1527.9,381.1,1527.9,384.6,1528.8,386.5z"/>
							</g>
							<g enable-background="new    ">
								<path d="M1620.6,333c0.3,0,0.3-0.3,0.3-0.6s0-0.3-0.3-0.6c-1.6-0.9-32.7-19.8-58.8-12.9c-0.3,0-0.3,0.3-0.6,0.3v0.3
									c0,0.3,0.3,0.6,0.6,0.6c17.3,1.3,34.2,10.7,39.3,13.5l0.9,0.6l-0.9,0.6c-5,3.8-22.6,16.3-40.8,21.1c-0.3,0-0.6,0.3-0.6,0.6
									s0.3,0.6,0.6,0.6C1587.3,359.4,1619.3,334.3,1620.6,333z"/>
								<path d="M1510.9,296.9c0.3-0.3,0.3-0.3,0.3-0.6c-5-16.7-27-20.4-28-20.4h-0.3l-0.3,0.3c-0.3,0.9-7.9,26.7,0.9,39.9
									c0,0.3,0.3,0.3,0.6,0c0.3,0,0.3-0.3,0.3-0.6c-2.2-11.9,1.3-26.4,2.2-30.5l0.3-0.6h0.6c3.5,0.9,15.1,4.1,22.6,12.3
									C1510.6,297.2,1510.9,297.2,1510.9,296.9z"/>
								<path d="M1499.9,392.1c0-0.3,0-0.6,0-0.9l0,0c-0.3-0.3-0.6,0-0.6,0c-11,12.3-26.1,19.5-30.5,21.1l-0.6,0.3v-0.9
									c0.3-5,1.3-22.6,7.5-37.1c0-0.3,0-0.6,0-0.6c-0.3,0-0.3,0-0.6,0.3c-14.1,17.6-14.8,49.6-15.1,50.9c0,0.3,0,0.3,0.3,0.3h0.3
									C1461.6,425.4,1489.3,415,1499.9,392.1z"/>
							</g>
						</g>
					</g>
				</g>
				<g>
					<path d="M1687.2,373.3h8.8v8.2h0.3c2.8-6,9.1-9.4,16-9.4c12.6,0,18.2,8.2,18.2,22v30.5h-9.1v-26.7c0-11.9-2.5-17.9-10.4-18.2
						c-10.4,0-14.8,8.8-14.8,21.1v23.9h-9.1L1687.2,373.3L1687.2,373.3z"/>
					<path d="M1772,377c4.4-2.8,9.7-4.7,16-4.7c13.8,0,19.5,7.2,19.5,21.4V415c0,6,0.3,8.5,0.3,10.1h-8.5v-6.6h-0.3
						c-2.2,3.1-6.9,7.9-15.1,7.9c-10.4,0-17.9-4.7-17.9-16c0-12.9,13.5-17,22.6-17c3.5,0,6,0,9.4,0.3c0-8.8-3.1-13.5-11.9-13.5
						c-5,0-10.7,1.9-14.1,5.3V377 M1798.7,400.3c-1.9,0-3.8-0.3-5.7-0.3c-4.7,0-17,0.9-17,9.7c0,5.3,5,8.5,9.1,8.5
						c8.8,0,13.5-6,13.5-13.5V400.3z"/>
					<path d="M1843.3,381.7c-1.3-0.3-2.5-0.3-3.8-0.3c-8.5,0-14.1,8.2-14.1,21.1v22.6h-9.4v-50.9h8.8v8.5h0.3
						c2.5-5.3,7.9-9.1,13.5-9.1c2.2,0,3.5,0,4.7,0.3L1843.3,381.7L1843.3,381.7z"/>
					<path d="M1890.8,372.3c14.8,0,24.8,11.3,24.8,27c0,14.8-10.1,27-24.8,27s-24.8-12.3-24.8-27
						C1865.7,383.6,1875.7,372.3,1890.8,372.3 M1890.8,418.5c10.4,0,15.1-10.1,15.1-19.2c0-9.7-5.7-19.2-15.1-19.2
						c-9.7,0-15.4,9.4-15.4,19.2C1875.4,408.4,1880.1,418.5,1890.8,418.5z"/>
					<path d="M1762.9,373.3h-13.2v-14.8l-9.4,3.1v11.9l-7.9,7.9h7.9v29.8c0,10.4,6,14.8,15.7,14.8c2.8,0,5.7-0.6,7.5-1.3v-7.9
						c-1.3,0.9-3.5,1.6-6,1.6c-4.4,0-7.9-3.1-7.9-9.1v-28.3h13.2V373.3z"/>
					<rect x="1849.3" y="373.3" width="9.4" height="51.5"/>
					<g>
						<path d="M1854,366.7c3.1,0,5.7-2.5,5.7-5.7s-2.5-5.7-5.7-5.7c-3.1,0-6,2.5-6,5.7C1848.1,363.8,1850.6,366.7,1854,366.7z"/>
					</g>
					<path d="M1647.9,353.2c20.4,0,32.4,15.4,32.4,36.4c0,21.4-11.9,36.4-32.4,36.4c-20.4,0-32-15.1-32-36.4
						C1615.9,368.9,1627.8,353.2,1647.9,353.2 M1647.9,417.2c15.4,0,22-13.5,22-27.6s-7.2-27.6-22-27.6c-14.8,0-22,13.2-22,27.6
						C1625.9,403.7,1632.5,417.2,1647.9,417.2z"/>
				</g>
			</g>
		</g>
	</g>
	<path fill="#233A75" d="M1173.8,208.3L1173.8,208.3c63.2,0,88.6-37.7,88.6-83.3s-25.4-83.3-88.6-83.3c-63.5,0-89.2,38-89.2,83.3
		C1084.9,170.6,1110.7,208.3,1173.8,208.3z M1173.8,71.6L1173.8,71.6c21.1,0,24.5,26.1,24.5,51.2s-3.1,51.2-24.5,51.2
		c-22,0-24.8-25.8-24.8-51.2C1149,98,1152.1,71.6,1173.8,71.6z"/>
	<polygon fill="#233A75" points="1275,205.8 1275,43.7 1337.8,43.7 1337.8,174.7 1388.4,174.7 1388.4,205.8 	"/>
	<path fill="#233A75" d="M1527,205.8L1527,205.8h64.7l-69.8-162.1h-62.2L1390,205.8h55.6l10.4-27.6h61L1527,205.8z M1493,103.4
		L1493,103.4l16.3,48.4h-44l17.6-48.4c3.8-11,5-19.5,5-19.5h0.6C1488.6,83.9,1489.6,92.4,1493,103.4z"/>
	<path fill="#233A75" d="M1721.8,205.8l-62.8-77.6c-6-7.5-10.1-15.4-10.1-15.4h-0.9c0,0,1.3,7.9,1.3,16.3v76.3h-52.5V43.4h53.1
		l55.6,67.9c6.3,7.5,10.4,14.8,10.4,14.8h0.6c0,0-1.3-7.9-1.3-15.4V43.4h52.8v162.1h-46.2V205.8z"/>
	<polygon fill="#233A75" points="1882.9,74.8 1882.9,205.8 1820.1,205.8 1820.1,74.8 1784.6,74.8 1784.6,43.7 1918.4,43.7 
		1918.4,74.8 	"/>
	<polygon fill="#233A75" points="999.1,206.1 1020.8,206.1 1114.1,0 1090.5,0 	"/>
	<polygon fill="#233A75" points="1056,0 996,140.8 953.9,45.9 891,45.9 968.6,206.1 988.4,206.1 1079.9,0 	"/>
	<path d="M585.6,81.1l-2.8,0.9l11.6,21.7l2.2-0.6c6.6-2.5,24.2-7.9,43.7-7.9c22.9,0,32.7,5.7,32.7,19.2c0,0,0,2.5,0,4.7
		c-49.6,3.8-99.6,12.9-99.6,51.2c0,19.5,13.2,42.7,75.4,42.7c26.4,0,49.6-3.5,65.4-9.7l1.6-0.6v-83.6c0-31.4-23.6-48.1-68.5-48.1
		C618.3,71,596.3,77.3,585.6,81.1L585.6,81.1z M617.1,169c0-21.1,19.8-27,56.2-30.5c0,5,0,46.2,0,49.3c-6,1.9-13.5,3.1-21.7,3.1
		C628.4,191,617.1,183.8,617.1,169L617.1,169z"/>
	<path d="M876.3,73.2h-43c0,0,0,106.8,0,110.3c-6.6,2.5-14.1,3.8-24.2,3.8c-17.6,0-27.3-7.2-27.3-19.8V73.2h-45.6v92.7
		c0,31.4,24.2,47.1,71.6,47.1c34.9,0,57.2-6,69.4-10.7l1.6-0.6V73.2L876.3,73.2L876.3,73.2z"/>
	<polygon points="42.4,205.2 42.4,49 1.6,49 1.6,10.7 156.8,10.7 156.8,49 115.6,49 115.9,205.2 	"/>
	<path d="M347.5,208.3c-28,0-47.1-3.5-59.7-9.7l13.8-32.4c6.3,3.5,19.5,7.5,33.3,7.5c14.5,0,22.9-5.3,22.9-13.8
		c0-8.2-6.9-13.2-26.1-20.1c-32.7-11.6-41.8-29.5-41.8-44.9c0-28.6,28-51.8,72.6-51.8c25.1,0,43,4.4,53.7,9.4l-12.6,28
		c-7.5-3.1-18.9-6.9-31.4-6.9c-13.8,0-21.4,5-21.4,13.8c0,9.1,8.5,14.1,26.1,20.4c41.2,14.8,47.1,31.1,47.1,48.4
		C423.8,186,392.4,208.3,347.5,208.3L347.5,208.3z"/>
	<polygon points="466.2,76.3 431.4,76.3 431.4,45.6 563.6,45.6 563.6,76.3 528.5,76.3 528.8,205.2 465.9,205.2 	"/>
	<polygon points="166.8,205.5 166.8,44.9 278,44.9 278,75.7 226.8,75.7 226.8,109.3 270.8,109.3 270.8,139.2 226.8,139.2 
		226.8,174.7 278,174.7 278,205.5 	"/>
	<path d="M3.8,322.4H10l5-13.8H33l4.7,13.8h6.9L28,276.2H21L3.8,322.4L3.8,322.4z M17,303.5l7.5-20.4l7.2,20.4H17L17,303.5z"/>
	<path d="M55.3,288.7V311c0,1.6,0.3,3.1,0.6,4.1c0.9,1.9,2.8,3.1,5.3,3.1c3.8,0,6.3-1.9,7.9-5.3c0.6-1.9,0.9-4.4,0.9-7.9v-16.3h5.7
		v33.6h-5.3v-5c-0.6,1.3-1.6,2.2-2.8,3.1c-2.2,1.6-4.7,2.5-7.5,2.5c-4.7,0-7.9-1.6-9.4-4.7c-0.9-1.6-1.3-4.1-1.3-6.9v-22.9h6V288.7z
		"/>
	<path d="M86.7,279.6h5.7v9.4h5.3v4.7h-5.3v21.7c0,1.3,0.3,1.9,1.3,2.5c0.3,0.3,1.3,0.3,2.2,0.3c0.3,0,0.6,0,0.9,0
		c0.3,0,0.6,0,0.9,0v4.4c-0.6,0.3-1.3,0.3-1.9,0.3c-0.6,0-1.6,0-2.2,0c-2.5,0-4.4-0.6-5.3-1.9s-1.6-3.1-1.6-5.3v-22.3h-4.4v-4.7h4.4
		L86.7,279.6L86.7,279.6z"/>
	<path d="M116.9,287.8c-4.7,0-8.5,1.6-11.3,5c-2.8,3.5-4.4,7.9-4.4,13.5c0,5.3,1.3,9.4,4.1,12.6c2.8,3.1,6.3,4.7,11,4.7
		c5.7,0,9.4-1.9,12.3-5.3c2.5-3.5,4.1-7.9,4.1-13.5s-1.6-9.7-4.4-12.6C124.7,289.4,121.3,287.8,116.9,287.8L116.9,287.8z
		 M116.6,318.6c-3.5,0-6-1.3-7.5-3.5c-1.6-2.5-2.2-5.3-2.2-8.8c0-3.8,0.9-6.9,2.2-9.4c1.6-2.5,4.1-4.1,7.5-4.1
		c3.8,0,6.6,1.6,8.2,4.7c0.9,1.9,1.6,4.4,1.6,7.5c0,3.5-0.6,6.6-1.9,9.4C122.8,317.3,120.3,318.6,116.6,318.6L116.6,318.6z"/>
	<path d="M139.5,288.7h5.3v5.7c0.6-1.3,1.6-2.5,3.1-4.1s3.8-2.5,6-2.5c0,0,0.3,0,0.6,0c0.3,0,0.6,0,1.3,0v6c-0.3,0-0.6,0-0.9,0
		c-0.3,0-0.6,0-0.9,0c-2.8,0-5,0.9-6.6,2.8s-2.2,4.1-2.2,6.3v19.5h-5.7L139.5,288.7L139.5,288.7z"/>
	<polygon points="160.5,289.1 160.5,289.1 160.5,322.4 166.2,322.4 166.2,289.1 	"/>
	<polygon points="160.5,276.2 160.5,276.2 160.5,282.5 166.2,282.5 166.2,276.2 	"/>
	<path d="M178.5,312c0.3,1.9,0.6,3.1,1.3,4.4c1.6,1.9,4.1,2.5,7.5,2.5c2.2,0,4.1-0.3,5.7-1.3s2.5-2.2,2.5-4.1c0-1.6-0.6-2.5-1.9-3.1
		c-0.9-0.3-2.5-0.9-4.7-1.6l-4.4-1.3c-2.8-0.6-5-1.6-6.3-2.5c-2.5-1.6-3.8-3.8-3.8-6.3c0-3.1,1.3-5.7,3.5-7.9
		c2.2-1.9,5.3-2.8,9.1-2.8c5,0,8.8,1.6,11,4.4c1.6,1.9,2.2,3.8,2.2,6.3h-5.3c0-1.3-0.6-2.5-1.3-3.5c-1.3-1.6-3.5-2.2-6.6-2.2
		c-2.2,0-3.8,0.3-4.7,1.3c-1.3,0.9-1.6,1.9-1.6,3.1c0,1.6,0.6,2.5,2.2,3.5c0.9,0.6,2.2,0.9,3.8,1.3l3.8,0.9c4.1,0.9,6.6,1.9,8.2,2.8
		c2.2,1.6,3.1,3.8,3.1,6.9s-1.3,5.7-3.5,7.9s-5.7,3.1-10.4,3.1c-5,0-8.5-1.3-10.7-3.5s-3.1-5-3.5-8.5L178.5,312L178.5,312z"/>
	<path d="M220.9,287.8c-4.7,0-8.5,1.6-11.3,5c-2.8,3.5-4.4,7.9-4.4,13.2s1.6,9.7,4.4,12.9c2.8,3.1,6.3,4.7,10.7,4.7
		c1.6,0,3.1-0.3,4.7-0.6c2.5-0.6,4.7-1.6,6.3-3.5c0.9-0.9,1.9-2.2,2.8-3.8s1.3-2.8,1.6-4.1H230c-0.3,1.6-0.9,2.8-1.9,3.8
		c-1.9,1.9-4.1,2.8-6.9,2.8c-3.1,0-5.3-0.9-6.9-3.1c-1.6-1.9-2.2-4.7-2.5-8.2h24.5c0-3.5,0-6-0.6-7.5c-0.3-2.2-1.3-4.4-2.2-6
		c-1.3-1.9-2.8-3.1-5-4.4C225.6,288.4,223.4,287.8,220.9,287.8L220.9,287.8z M211.4,302.9c0-2.8,0.9-5.3,2.8-7.2
		c1.9-1.9,3.8-2.8,6.6-2.8c3.8,0,6.3,1.3,7.9,4.1c0.9,1.6,1.3,3.5,1.6,6H211.4L211.4,302.9z"/>
	<polygon points="221.8,275.2 216.2,284.3 220.6,284.3 229,275.2 	"/>
	<path d="M260.1,335.9h5.7v-17.3c1.3,1.6,2.5,2.5,3.5,3.1c1.6,1.3,3.8,1.6,6.3,1.6c3.1,0,6-0.9,8.5-3.1c3.8-3.1,5.7-8.5,5.7-15.7
		c0-5.3-1.3-9.7-4.1-12.6c-2.5-2.8-6-4.4-9.7-4.4c-2.5,0-4.7,0.6-6.6,1.9c-1.3,0.9-2.5,1.9-3.8,3.5v-4.4h-5.7v47.4H260.1z
		 M274.9,318.6c-3.8,0-6.6-1.9-7.9-5.3c-0.6-1.9-1.3-4.1-1.3-6.6c0-3.1,0.3-6,1.3-8.2c1.3-3.8,4.1-6,7.9-6c3.8,0,6.6,1.9,7.9,5.7
		c0.9,1.9,1.3,4.4,1.3,6.9c0,4.4-0.9,7.9-2.5,10.1C279.6,317.6,277.4,318.6,274.9,318.6L274.9,318.6z"/>
	<path d="M305.4,303.2c-3.1,0.3-5.7,1.6-7.5,3.1c-1.9,1.6-2.8,4.1-2.8,7.2c0,2.8,0.9,5.3,2.8,7.2c1.9,1.9,4.4,2.8,7.5,2.8
		c2.5,0,5-0.6,7.2-1.6c2.2-1.3,3.8-2.5,5-4.1c0.3,1.3,0.6,2.5,0.9,3.1c0.9,1.3,2.2,2.2,4.4,2.2c0.9,0,1.6,0,1.9,0
		c0.3,0,1.3-0.3,1.9-0.6v-4.1c-0.3,0-0.6,0-0.9,0c-0.3,0-0.6,0-0.9,0c-0.6,0-1.3-0.3-1.6-0.6c-0.3-0.3-0.3-0.9-0.3-1.3v-19.2
		c0-3.1-1.3-5.7-3.8-7.2c-2.5-1.6-5.7-2.2-9.7-2.2c-3.5,0-6.6,0.9-9.1,2.5c-2.5,1.6-4.1,4.4-4.1,8.5h5.3c0.3-1.6,0.6-2.8,1.3-3.8
		c1.3-1.6,3.5-2.2,6.3-2.2c2.5,0,4.4,0.3,6,1.3c1.3,0.9,2.2,2.2,2.2,4.1c0,0.9,0,1.6-0.3,2.2c-0.3,0.9-1.3,1.6-2.5,1.6L305.4,303.2
		L305.4,303.2z M300.7,313.2c0-2.2,0.9-3.8,2.5-4.7c0.9-0.6,2.5-0.9,4.7-1.3l3.5-0.3c0.9,0,2.2-0.3,3.1-0.6c0.9-0.3,1.9-0.6,2.8-1.3
		v4.7c0,3.5-1.6,6-4.7,7.5c-1.9,0.9-3.8,1.3-5.7,1.3c-1.6,0-3.1-0.6-4.4-1.3C301.3,316.4,300.7,315.1,300.7,313.2L300.7,313.2z"/>
	<path d="M332.4,288.7h5.3v5.7c0.3-1.3,1.6-2.5,3.1-4.1s3.8-2.5,6-2.5c0,0,0.3,0,0.6,0c0.3,0,0.6,0,1.3,0v6c-0.3,0-0.6,0-0.9,0
		c-0.3,0-0.6,0-0.9,0c-2.8,0-5,0.9-6.6,2.8s-2.2,4.1-2.2,6.3v19.5h-5.7L332.4,288.7L332.4,288.7z"/>
	<polygon points="371.7,276.2 377.3,276.2 377.3,322.4 371.7,322.4 	"/>
	<path d="M399.6,287.8c-4.7,0-8.5,1.6-11.3,5c-2.8,3.5-4.4,7.9-4.4,13.2s1.6,9.7,4.4,12.9c2.8,3.1,6.3,4.7,10.7,4.7
		c1.6,0,3.1-0.3,4.7-0.6c2.5-0.6,4.7-1.6,6.3-3.5c0.9-0.9,1.9-2.2,2.8-3.8c0.9-1.6,1.3-2.8,1.6-4.1h-5.7c-0.3,1.6-0.9,2.8-1.9,3.8
		c-1.9,1.9-4.1,2.8-6.9,2.8c-3.1,0-5.3-0.9-6.9-3.1c-1.6-1.9-2.2-4.7-2.5-8.2H415c0-3.5,0-6-0.6-7.5c-0.3-2.2-1.3-4.4-2.2-6
		c-1.3-1.9-2.8-3.1-5-4.4C404.4,288.4,402.2,287.8,399.6,287.8L399.6,287.8z M389.9,302.9c0-2.8,0.9-5.3,2.8-7.2
		c1.6-1.9,3.8-2.8,6.6-2.8c3.5,0,6.3,1.3,7.5,4.1c0.9,1.6,1.3,3.5,1.6,6H389.9L389.9,302.9z"/>
	<path d="M451.2,288.1c-3.8,0-7.2,1.6-10.1,4.7s-4.1,7.5-4.1,13.2c0,6,1.3,10.4,4.1,12.9c2.8,2.5,6,3.8,9.7,3.8
		c2.5,0,4.7-0.3,6.3-1.3s2.8-2.2,4.1-3.8c0,4.4-0.3,7.9-0.9,9.4c-1.3,3.1-4.1,4.7-8.5,4.7c-2.8,0-4.7-0.6-6-1.9
		c-0.9-0.9-1.3-1.9-1.6-3.5h-6c0.3,3.5,1.6,6,4.1,7.5c2.5,1.6,5.7,2.5,9.1,2.5c6.6,0,11-2.2,13.2-6.9c1.3-2.5,1.9-6,1.9-10.1v-30.5
		h-5.3v4.1c-0.9-1.3-2.2-2.5-3.1-3.1C456.2,288.7,453.7,288.1,451.2,288.1L451.2,288.1z M461.2,305.4c0,2.8-0.3,5.3-1.3,7.2
		c-1.6,3.8-4.4,5.3-8.5,5.3c-2.5,0-4.7-0.9-6.3-2.8s-2.2-5-2.2-8.8c0-3.1,0.3-6,1.3-7.9c1.6-3.8,4.1-5.7,8.2-5.7
		c2.5,0,4.7,0.9,6.6,3.1C460.3,298.2,461.2,301.3,461.2,305.4L461.2,305.4z"/>
	<path d="M488.6,287.8c-4.7,0-8.5,1.6-11.3,5c-2.8,3.5-4.4,7.9-4.4,13.5c0,5.3,1.3,9.4,4.1,12.6c2.8,3.1,6.3,4.7,11,4.7
		c5.7,0,9.4-1.9,12.3-5.3c2.5-3.5,3.8-7.9,3.8-13.5s-1.6-9.7-4.4-12.6C496.4,289.4,493,287.8,488.6,287.8L488.6,287.8z M488.2,318.6
		c-3.5,0-6-1.3-7.5-3.5c-1.6-2.5-2.2-5.3-2.2-8.8c0-3.8,0.6-6.9,2.2-9.4s4.1-4.1,7.5-4.1c3.8,0,6.6,1.6,8.2,4.7
		c0.9,1.9,1.6,4.4,1.6,7.5c0,3.5-0.6,6.6-2.2,9.4C494.5,317.3,492,318.6,488.2,318.6L488.2,318.6z"/>
	<path d="M516.5,288.7V311c0,1.6,0.3,3.1,0.9,4.1c0.9,1.9,2.8,3.1,5.3,3.1c3.8,0,6.3-1.9,7.9-5.3c0.6-1.9,1.3-4.4,1.3-7.9v-16.3h5.7
		v33.6h-5.3v-5c-0.6,1.3-1.6,2.2-2.8,3.1c-2.2,1.6-4.7,2.5-7.5,2.5c-4.7,0-7.9-1.6-9.7-4.7c-0.9-1.6-1.3-4.1-1.3-6.9v-22.9h5.7
		V288.7z"/>
	<polygon points="549.5,288.7 558.3,316.1 567.7,288.7 574,288.7 561.1,322.4 555.2,322.4 542.9,288.7 	"/>
	<path d="M592.6,287.8c-4.7,0-8.5,1.6-11.3,5c-2.8,3.5-4.4,7.9-4.4,13.2s1.6,9.7,4.4,12.9s6.6,4.7,10.7,4.7c1.6,0,3.1-0.3,4.7-0.6
		c2.5-0.6,4.7-1.6,6.3-3.5c0.9-0.9,1.9-2.2,2.8-3.8c0.9-1.6,1.3-2.8,1.6-4.1h-5.7c-0.3,1.6-1.3,2.8-2.2,3.8
		c-1.6,1.9-4.1,2.8-6.9,2.8c-3.1,0-5.3-0.9-6.9-3.1c-1.6-1.9-2.2-4.7-2.5-8.2h24.5c0-3.5-0.3-6-0.6-7.5c-0.3-2.2-1.3-4.4-2.2-6
		c-1.3-1.9-2.8-3.1-5-4.4C597.3,288.4,594.8,287.8,592.6,287.8L592.6,287.8z M582.8,302.9c0-2.8,0.9-5.3,2.8-7.2
		c1.9-1.9,3.8-2.8,6.6-2.8c3.5,0,6.3,1.3,7.5,4.1c0.9,1.6,1.3,3.5,1.6,6H582.8L582.8,302.9z"/>
	<path d="M614.5,288.7h5.3v5.7c0.3-1.3,1.6-2.5,3.1-4.1c1.6-1.6,3.8-2.5,6-2.5c0,0,0.3,0,0.6,0s0.6,0,1.3,0v6c-0.3,0-0.6,0-0.9,0
		s-0.6,0-0.9,0c-2.8,0-5,0.9-6.6,2.8c-1.6,1.9-2.2,4.1-2.2,6.3v19.5h-5.7L614.5,288.7L614.5,288.7z"/>
	<path d="M635.6,288.7h5.3v4.7c1.6-1.9,3.1-3.5,5-4.4c1.9-0.9,3.8-1.3,6-1.3c4.7,0,7.9,1.6,9.7,5c0.9,1.9,1.3,4.4,1.3,7.9v21.7h-5.7
		V301c0-2.2-0.3-3.8-0.9-5c-0.9-2.2-2.8-3.1-5.3-3.1c-1.3,0-2.5,0-3.5,0.3c-1.6,0.6-2.8,1.3-4.1,2.8c-0.9,1.3-1.6,2.2-1.9,3.5
		s-0.3,2.8-0.3,5V322h-5.7L635.6,288.7L635.6,288.7z"/>
	<path d="M685.6,287.8c-4.7,0-8.5,1.6-11.3,5c-2.8,3.5-4.4,7.9-4.4,13.2s1.6,9.7,4.4,12.9s6.3,4.7,10.7,4.7c1.6,0,3.1-0.3,4.4-0.6
		c2.5-0.6,4.7-1.6,6.3-3.5c0.9-0.9,1.9-2.2,2.8-3.8s1.3-2.8,1.6-4.1h-5.7c-0.3,1.6-0.9,2.8-2.2,3.8c-1.9,1.9-4.1,2.8-6.9,2.8
		c-3.1,0-5.3-0.9-6.9-3.1c-1.6-1.9-2.2-4.7-2.5-8.2h24.5c0-3.5-0.3-6-0.6-7.5c-0.3-2.2-1.3-4.4-2.2-6c-1.3-1.9-2.8-3.1-5-4.4
		C690.3,288.4,687.8,287.8,685.6,287.8L685.6,287.8z M675.8,302.9c0-2.8,0.9-5.3,2.8-7.2c1.6-1.9,3.8-2.8,6.6-2.8
		c3.5,0,6.3,1.3,7.5,4.1c0.9,1.6,1.3,3.5,1.6,6H675.8L675.8,302.9z"/>
	<path d="M707.2,288.7h5.7v4.7c1.3-1.6,2.5-2.8,3.8-3.8c1.9-1.3,4.1-1.9,6.3-1.9c2.5,0,4.7,0.6,6.3,1.9c0.9,0.6,1.9,1.9,2.5,3.5
		c1.3-1.9,2.8-3.1,4.4-4.1c1.6-0.9,3.5-1.3,5.7-1.3c4.4,0,7.5,1.6,9.4,5c0.9,1.9,1.3,4.1,1.3,7.2v22.3h-6v-23.3
		c0-2.2-0.6-3.8-1.6-4.7c-1.3-0.9-2.5-1.3-4.1-1.3c-2.2,0-4.1,0.6-6,2.2c-1.6,1.6-2.5,4.1-2.5,7.5v19.5h-5.7v-22
		c0-2.2-0.3-4.1-0.9-5c-0.9-1.6-2.5-2.2-4.7-2.2c-2.2,0-4.1,0.9-6,2.5c-1.9,1.6-2.5,4.7-2.5,9.1v17.9h-5.7v-33.9H707.2z"/>
	<path d="M774.8,287.8c-4.7,0-8.5,1.6-11.3,5c-2.8,3.5-4.4,7.9-4.4,13.2s1.6,9.7,4.4,12.9s6.3,4.7,10.7,4.7c1.6,0,3.1-0.3,4.4-0.6
		c2.5-0.6,4.7-1.6,6.3-3.5c0.9-0.9,1.9-2.2,2.8-3.8s1.3-2.8,1.6-4.1h-5.7c-0.3,1.6-0.9,2.8-2.2,3.8c-1.6,1.9-4.1,2.8-6.9,2.8
		c-3.1,0-5.3-0.9-6.9-3.1c-1.6-1.9-2.2-4.7-2.5-8.2h24.5c0-3.5-0.3-6-0.6-7.5c-0.3-2.2-1.3-4.4-2.2-6c-1.3-1.9-2.8-3.1-5-4.4
		C779.5,288.4,777.3,287.8,774.8,287.8L774.8,287.8z M765,302.9c0-2.8,0.9-5.3,2.8-7.2c1.6-1.9,3.8-2.8,6.6-2.8
		c3.5,0,6.3,1.3,7.5,4.1c0.9,1.6,1.3,3.5,1.6,6H765L765,302.9z"/>
	<path d="M796.5,288.7h5.3v4.7c1.6-1.9,3.1-3.5,5-4.4c1.9-0.9,3.8-1.3,6-1.3c4.7,0,7.9,1.6,9.7,5c0.9,1.9,1.3,4.4,1.3,7.9v21.7h-5.3
		V301c0-2.2-0.3-3.8-0.9-5c-0.9-2.2-2.8-3.1-5.3-3.1c-1.3,0-2.5,0-3.1,0.3c-1.6,0.6-2.8,1.3-4.1,2.8c-0.9,1.3-1.6,2.2-1.9,3.5
		s-0.3,2.8-0.3,5V322h-6.3V288.7L796.5,288.7z"/>
	<path d="M833.5,279.6h5.7v9.4h5.3v4.7h-5.3v21.7c0,1.3,0.3,1.9,1.3,2.5c0.3,0.3,1.3,0.3,2.2,0.3c0.3,0,0.6,0,0.9,0
		c0.3,0,0.6,0,1.3,0v4.4c-0.6,0.3-1.3,0.3-1.9,0.3s-1.6,0-2.2,0c-2.5,0-4.4-0.6-5.3-1.9c-0.9-1.3-1.6-3.1-1.6-5.3v-22.3h-4.7v-4.7
		h4.7v-9.1H833.5z"/>
	<path d="M880,288.1c-4.7,0-8.2,1.9-10.7,5.3s-3.8,7.9-3.8,12.9c0,5.3,1.3,9.4,4.1,12.6s6,4.7,9.7,4.7c2.2,0,4.4-0.3,6.3-1.3
		c1.9-0.9,3.5-2.5,4.7-4.4v4.7h5v-46.2h-5.3v17c-1.3-1.6-2.5-2.5-3.5-3.1C884.8,288.7,882.9,288.1,880,288.1L880,288.1z M871.6,306
		c0-4.1,0.9-7.5,2.5-9.7c1.9-2.2,4.1-3.1,6.9-3.1c2.5,0,4.7,0.9,6.3,3.1c1.6,2.2,2.5,5.3,2.5,9.4s-0.6,7.5-2.5,9.7
		c-1.6,2.2-3.8,3.5-6.3,3.5c-3.5,0-5.7-1.3-7.2-3.8C872.5,312.6,871.6,309.5,871.6,306L871.6,306z"/>
	<path d="M917.7,287.8c-4.7,0-8.5,1.6-11.3,5s-4.4,7.9-4.4,13.2s1.6,9.7,4.4,12.9s6.6,4.7,10.7,4.7c1.6,0,3.1-0.3,4.7-0.6
		c2.5-0.6,4.7-1.6,6.3-3.5c0.9-0.9,1.9-2.2,2.8-3.8c0.9-1.6,1.3-2.8,1.6-4.1h-5.7c-0.3,1.6-0.9,2.8-2.2,3.8
		c-1.6,1.9-4.1,2.8-6.9,2.8c-3.1,0-5.3-0.9-6.9-3.1c-1.6-1.9-2.2-4.7-2.5-8.2h24.5c0-3.5,0-6-0.3-7.5c-0.3-2.2-1.3-4.4-2.2-6
		c-1.3-1.9-2.8-3.1-5-4.4C922.5,288.4,920.3,287.8,917.7,287.8L917.7,287.8z M908,302.9c0-2.8,0.9-5.3,2.8-7.2
		c1.9-1.9,4.1-2.8,6.6-2.8c3.8,0,6.3,1.3,7.5,4.1c0.9,1.6,1.3,3.5,1.6,6H908L908,302.9z"/>
	<polygon points="957.6,276.2 963.3,276.2 963.3,322.4 957.6,322.4 	"/>
	<path d="M973,289.7c1.3-0.3,1.9-0.9,2.5-1.9c0.6-1.3,0.9-2.5,0.9-3.8v-0.3v-0.3H973v-6.9h6.6v6.3c0,2.8-0.6,5-1.6,6.9
		c-1.3,1.9-2.8,2.8-5,3.1L973,289.7L973,289.7z"/>
	<path d="M1006.7,274.9c-7.9,0-13.8,2.8-17.6,8.5c-3.1,4.4-4.7,9.7-4.7,16c0,6.9,1.9,12.6,5.3,17.3c4.1,4.7,9.7,6.9,16.7,6.9
		c7.5,0,13.5-2.5,17.6-8.2c3.5-4.7,5.3-10.4,5.3-17.3c0-6.3-1.6-11.6-4.7-15.7C1020.8,277.7,1014.8,274.9,1006.7,274.9L1006.7,274.9
		z M1007.3,318c-6,0-10.1-1.9-12.6-5.3s-3.8-7.9-3.8-12.9c0-6.3,1.6-11.3,4.4-14.5c3.1-3.1,6.9-5,11.6-5c5,0,8.8,1.6,11.6,5
		c2.8,3.5,4.4,7.5,4.4,13.2c0,5-1.3,9.7-3.8,13.5C1017,316.1,1012.9,318,1007.3,318L1007.3,318z"/>
	<path d="M1036.2,288.7h5.3v4.7c1.6-1.9,3.1-3.5,5-4.4s3.8-1.3,6-1.3c4.7,0,8.2,1.6,9.7,5c0.9,1.9,1.3,4.4,1.3,7.9v21.7h-5.7V301
		c0-2.2-0.3-3.8-0.9-5c-0.9-2.2-2.8-3.1-5.3-3.1c-1.3,0-2.5,0-3.5,0.3c-1.6,0.6-2.8,1.3-4.1,2.8c-0.9,1.3-1.6,2.2-1.9,3.5
		s-0.3,2.8-0.3,5V322h-5.7V288.7L1036.2,288.7z"/>
	<path d="M1073,279.6h5.7v9.4h5.3v4.7h-5.3v21.7c0,1.3,0.3,1.9,1.3,2.5c0.3,0.3,1.3,0.3,2.2,0.3c0.3,0,0.6,0,0.9,0
		c0.3,0,0.6,0,0.9,0v4.4c-0.6,0.3-1.3,0.3-1.9,0.3s-1.6,0-2.2,0c-2.5,0-4.4-0.6-5.3-1.9c-0.9-1.3-1.6-3.1-1.6-5.3v-22.3h-4.4v-4.7
		h4.4L1073,279.6L1073,279.6z"/>
	<path d="M1098.7,303.2c-3.1,0.3-5.7,1.6-7.5,3.1s-2.8,4.1-2.8,7.2c0,2.8,0.9,5.3,2.8,7.2c1.9,1.9,4.4,2.8,7.5,2.8
		c2.5,0,5-0.6,7.2-1.6c2.2-1.3,3.8-2.5,5-4.1c0.3,1.3,0.6,2.5,0.9,3.1c0.9,1.3,2.2,2.2,4.4,2.2c0.9,0,1.3,0,1.9,0
		c0.3,0,1.3-0.3,1.9-0.6v-4.1c-0.3,0-0.6,0-0.9,0c-0.3,0-0.6,0-0.9,0c-0.9,0-1.3-0.3-1.6-0.6s-0.3-0.9-0.3-1.3v-19.2
		c0-3.1-1.3-5.7-3.8-7.2s-5.7-2.2-9.7-2.2c-3.5,0-6.3,0.9-9.1,2.5c-2.5,1.6-4.1,4.4-4.1,8.5h5.3c0.3-1.6,0.6-2.8,1.3-3.8
		c1.3-1.6,3.1-2.2,6.3-2.2c2.5,0,4.4,0.3,6,1.3c1.3,0.9,1.9,2.2,1.9,4.1c0,0.9,0,1.6-0.3,2.2c-0.3,0.9-1.3,1.6-2.5,1.6L1098.7,303.2
		L1098.7,303.2z M1094,313.2c0-2.2,0.9-3.8,2.5-4.7c0.9-0.6,2.5-0.9,4.7-1.3l3.5-0.3c0.9,0,2.2-0.3,3.1-0.6s1.9-0.6,2.5-1.3v4.7
		c0,3.5-1.6,6-4.7,7.5c-1.9,0.9-3.8,1.3-5.7,1.3c-1.6,0-3.1-0.6-4.1-1.3C1094.6,316.4,1094,315.1,1094,313.2L1094,313.2z"/>
	<path d="M1125.7,288.7h5.3v5.7c0.3-1.3,1.6-2.5,3.1-4.1s3.8-2.5,6-2.5c0,0,0.3,0,0.6,0s0.6,0,1.3,0v6c-0.3,0-0.6,0-0.9,0
		c-0.3,0-0.6,0-0.9,0c-2.8,0-5,0.9-6.6,2.8s-2.2,4.1-2.2,6.3v19.5h-5.7L1125.7,288.7L1125.7,288.7z"/>
	<polygon points="1146.8,289.1 1146.8,289.1 1146.8,322.4 1152.4,322.4 1152.4,289.1 	"/>
	<polygon points="1146.8,276.2 1146.8,276.2 1146.8,282.5 1152.4,282.5 1152.4,276.2 	"/>
	<path d="M1174.7,287.8c-4.7,0-8.5,1.6-11.3,5c-2.8,3.5-4.4,7.9-4.4,13.5c0,5.3,1.3,9.4,4.1,12.6c2.8,3.1,6.3,4.7,11,4.7
		c5.7,0,9.4-1.9,12.3-5.3c2.5-3.5,4.1-7.9,4.1-13.5s-1.6-9.7-4.4-12.6C1182.6,289.4,1178.8,287.8,1174.7,287.8L1174.7,287.8z
		 M1174.4,318.6c-3.5,0-6-1.3-7.2-3.5c-1.6-2.5-2.2-5.3-2.2-8.8c0-3.8,0.9-6.9,2.2-9.4c1.6-2.5,4.1-4.1,7.5-4.1
		c3.8,0,6.6,1.6,8.2,4.7c0.9,1.9,1.6,4.4,1.6,7.5c0,3.5-0.6,6.6-2.2,9.4S1178.2,318.6,1174.4,318.6L1174.4,318.6z"/>
</g>
</svg>
